<?xml version="1.0" encoding="UTF-8" standalone="no"?>
<!DOCTYPE svg PUBLIC "-//W3C//DTD SVG 1.1//EN"
 "http://www.w3.org/Graphics/SVG/1.1/DTD/svg11.dtd">
<!-- Generated by graphviz version 2.26.3 (20100126.1600)
 -->
<!-- Title: G Pages: 1 -->
<svg width="128pt" height="174pt"
 viewBox="0.00 0.00 128.00 174.00" xmlns="http://www.w3.org/2000/svg" xmlns:xlink="http://www.w3.org/1999/xlink">
<g id="graph1" class="graph" transform="scale(1 1) rotate(0) translate(4 170)">
<title>G</title>
<polygon fill="white" stroke="white" points="-4,5 -4,-170 125,-170 125,5 -4,5"/>
<g id="graph2" class="cluster"><title>cluster_Global</title>
<polyline fill="none" stroke="gray" points="20,-8 100,-8 "/>
<path fill="none" stroke="gray" d="M100,-8C106,-8 112,-14 112,-20"/>
<polyline fill="none" stroke="gray" points="112,-20 112,-146 "/>
<path fill="none" stroke="gray" d="M112,-146C112,-152 106,-158 100,-158"/>
<polyline fill="none" stroke="gray" points="100,-158 20,-158 "/>
<path fill="none" stroke="gray" d="M20,-158C14,-158 8,-152 8,-146"/>
<polyline fill="none" stroke="gray" points="8,-146 8,-20 "/>
<path fill="none" stroke="gray" d="M8,-20C8,-14 14,-8 20,-8"/>
<text text-anchor="middle" x="60" y="-144.1" font-family="Times Roman,serif" font-size="11.00" fill="gray">Global</text>
</g>
<g id="graph3" class="cluster"><title>cluster_\chdemko</title>
<polyline fill="none" stroke="gray" points="28,-16 92,-16 "/>
<path fill="none" stroke="gray" d="M92,-16C98,-16 104,-22 104,-28"/>
<polyline fill="none" stroke="gray" points="104,-28 104,-116 "/>
<path fill="none" stroke="gray" d="M104,-116C104,-122 98,-128 92,-128"/>
<polyline fill="none" stroke="gray" points="92,-128 28,-128 "/>
<path fill="none" stroke="gray" d="M28,-128C22,-128 16,-122 16,-116"/>
<polyline fill="none" stroke="gray" points="16,-116 16,-28 "/>
<path fill="none" stroke="gray" d="M16,-28C16,-22 22,-16 28,-16"/>
<text text-anchor="middle" x="60" y="-114.1" font-family="Times Roman,serif" font-size="11.00" fill="gray">chdemko</text>
</g>
<g id="graph4" class="cluster"><title>cluster_\chdemko\Interval</title>
<polyline fill="none" stroke="gray" points="36,-24 84,-24 "/>
<path fill="none" stroke="gray" d="M84,-24C90,-24 96,-30 96,-36"/>
<polyline fill="none" stroke="gray" points="96,-36 96,-86 "/>
<path fill="none" stroke="gray" d="M96,-86C96,-92 90,-98 84,-98"/>
<polyline fill="none" stroke="gray" points="84,-98 36,-98 "/>
<path fill="none" stroke="gray" d="M36,-98C30,-98 24,-92 24,-86"/>
<polyline fill="none" stroke="gray" points="24,-86 24,-36 "/>
<path fill="none" stroke="gray" d="M24,-36C24,-30 30,-24 36,-24"/>
<text text-anchor="middle" x="60" y="-84.1" font-family="Times Roman,serif" font-size="11.00" fill="gray">Interval</text>
</g>
<!-- \\chdemko\\Interval\\Interval -->
<g id="node4" class="node"><title>\\chdemko\\Interval\\Interval</title>
<polygon fill="none" stroke="black" points="88,-68 32,-68 32,-32 88,-32 88,-68"/>
<text text-anchor="middle" x="60" y="-47.1" font-family="Times Roman,serif" font-size="11.00">Interval</text>
</g>
</g>
</svg>
