<?xml version="1.0" encoding="UTF-8" standalone="no"?>
<!DOCTYPE svg PUBLIC "-//W3C//DTD SVG 1.1//EN"
 "http://www.w3.org/Graphics/SVG/1.1/DTD/svg11.dtd">
<!-- Generated by graphviz version 2.26.3 (20100126.1600)
 -->
<!-- Title: G Pages: 1 -->
<svg width="350pt" height="174pt"
 viewBox="0.00 0.00 350.00 174.00" xmlns="http://www.w3.org/2000/svg" xmlns:xlink="http://www.w3.org/1999/xlink">
<g id="graph1" class="graph" transform="scale(1 1) rotate(0) translate(4 170)">
<title>G</title>
<polygon fill="white" stroke="white" points="-4,5 -4,-170 347,-170 347,5 -4,5"/>
<g id="graph2" class="cluster"><title>cluster_Global</title>
<polyline fill="none" stroke="gray" points="242,-8 322,-8 "/>
<path fill="none" stroke="gray" d="M322,-8C328,-8 334,-14 334,-20"/>
<polyline fill="none" stroke="gray" points="334,-20 334,-146 "/>
<path fill="none" stroke="gray" d="M334,-146C334,-152 328,-158 322,-158"/>
<polyline fill="none" stroke="gray" points="322,-158 242,-158 "/>
<path fill="none" stroke="gray" d="M242,-158C236,-158 230,-152 230,-146"/>
<polyline fill="none" stroke="gray" points="230,-146 230,-20 "/>
<path fill="none" stroke="gray" d="M230,-20C230,-14 236,-8 242,-8"/>
<text text-anchor="middle" x="282" y="-144.1" font-family="Times Roman,serif" font-size="11.00" fill="gray">Global</text>
</g>
<g id="graph3" class="cluster"><title>cluster_\chdemko</title>
<polyline fill="none" stroke="gray" points="250,-16 314,-16 "/>
<path fill="none" stroke="gray" d="M314,-16C320,-16 326,-22 326,-28"/>
<polyline fill="none" stroke="gray" points="326,-28 326,-116 "/>
<path fill="none" stroke="gray" d="M326,-116C326,-122 320,-128 314,-128"/>
<polyline fill="none" stroke="gray" points="314,-128 250,-128 "/>
<path fill="none" stroke="gray" d="M250,-128C244,-128 238,-122 238,-116"/>
<polyline fill="none" stroke="gray" points="238,-116 238,-28 "/>
<path fill="none" stroke="gray" d="M238,-28C238,-22 244,-16 250,-16"/>
<text text-anchor="middle" x="282" y="-114.1" font-family="Times Roman,serif" font-size="11.00" fill="gray">chdemko</text>
</g>
<g id="graph4" class="cluster"><title>cluster_\chdemko\Interval</title>
<polyline fill="none" stroke="gray" points="258,-24 306,-24 "/>
<path fill="none" stroke="gray" d="M306,-24C312,-24 318,-30 318,-36"/>
<polyline fill="none" stroke="gray" points="318,-36 318,-86 "/>
<path fill="none" stroke="gray" d="M318,-86C318,-92 312,-98 306,-98"/>
<polyline fill="none" stroke="gray" points="306,-98 258,-98 "/>
<path fill="none" stroke="gray" d="M258,-98C252,-98 246,-92 246,-86"/>
<polyline fill="none" stroke="gray" points="246,-86 246,-36 "/>
<path fill="none" stroke="gray" d="M246,-36C246,-30 252,-24 258,-24"/>
<text text-anchor="middle" x="282" y="-84.1" font-family="Times Roman,serif" font-size="11.00" fill="gray">Interval</text>
</g>
<!-- \\chdemko\\Interval\\Interval -->
<g id="node4" class="node"><title>\\chdemko\\Interval\\Interval</title>
<polygon fill="none" stroke="black" points="310,-68 254,-68 254,-32 310,-32 310,-68"/>
<text text-anchor="middle" x="282" y="-47.1" font-family="Times Roman,serif" font-size="11.00">Interval</text>
</g>
<!-- \\JsonSerializable -->
<g id="node6" class="node"><title>\\JsonSerializable</title>
<ellipse fill="none" stroke="black" cx="91" cy="-50" rx="91.2168" ry="18.3848"/>
<text text-anchor="middle" x="91" y="-46.4" font-family="Times Roman,serif" font-size="14.00" fill="gray">\JsonSerializable</text>
</g>
<!-- \\chdemko\\Interval\\Interval&#45;&gt;\\JsonSerializable -->
<g id="edge5" class="edge"><title>\\chdemko\\Interval\\Interval&#45;&gt;\\JsonSerializable</title>
<path fill="none" stroke="black" stroke-dasharray="1,5" d="M253.817,-50C237.185,-50 215.01,-50 192.393,-50"/>
<polygon fill="none" stroke="black" points="192.339,-46.5001 182.339,-50 192.339,-53.5001 192.339,-46.5001"/>
</g>
</g>
</svg>
